M48
;Layer_Color=9474304
;FILE_FORMAT=2:5
INCH,LZ
;TYPE=PLATED
T01F00S00C0.02500
T02F00S00C0.02756
T03F00S00C0.02953
T04F00S00C0.03150
T05F00S00C0.03346
T06F00S00C0.03543
T07F00S00C0.03937
T08F00S00C0.04134
T09F00S00C0.04724
T10F00S00C0.05000
T11F00S00C0.05118
%
T01
X0104Y0087
Y0106
X00945Y0149
X0113Y01685
X0103Y0188
X01035Y02385
X01455Y025
X01575Y0249
X0158Y02395
Y023
Y02195
Y02095
Y01995
X01565Y0175
X01535Y0109
X0056
Y0128213
X0059Y01535
X0051362Y0161921
X0059Y0188
X00515Y0197
X00435Y02525
X001Y0099
X00095Y0257
X0009Y03165
X00075Y03995
X0129167Y0378333
X0128583Y0344917
Y03115
X0127Y02855
X0128583Y041175
Y0445166
Y0478583
X0129Y0501
X0181344Y0470042
X01795Y04325
X01835Y0544
X00175
T02
X0098579Y00325
X0108421
X0166079Y01205
X0175921
X0147Y0148158
Y0158
X018204Y020954
X0189Y02165
X00385Y0131555
Y0121713
Y0113121
Y0103279
T03
X00535Y0045315
Y0084685
X0087315Y00205
Y0009
X0126685
Y00205
X0151315Y00245
Y0013
X0190685
Y00245
X0186Y0082315
Y0121685
X0018Y0380315
Y0419685
Y0468815
Y0508185
T04
X0167Y0081
Y0091
Y0101
T05
X01475Y0038
Y0048
Y0058
Y0068
X01785
Y0058
Y0048
Y0038
T06
X00735Y0048
Y0058
Y0068
Y0078
Y0088
X01335
Y0078
Y0068
Y0058
Y0048
Y0098
Y0108
Y0118
Y0128
Y0138
Y0148
Y0158
Y0168
Y0178
Y0188
Y0198
Y0208
Y0218
Y0228
Y0238
X00735
Y0228
Y0218
Y0208
Y0198
Y0188
Y0178
Y0168
Y0158
Y0148
Y0138
Y0128
Y0118
Y0108
Y0098
X0018Y0429764
Y044
Y0450236
T07
X0049Y0007
Y0022
Y0037
X0033342Y02375
X0013657
X0038315Y0278
X0058
Y0312
X0038315
X0038315Y0345417
X0058
Y0378833
X0038315
X0092301Y0378333
X0111986
X0143394
X0163079
Y0344917
X0143394
X0111986
X0092301
Y03115
X0111986
X0143394
X0163079
Y0277
X0143394
X0111986
X0092301
Y041175
X0111986
X0143394
X0163079
X0163079Y0445166
X0143394
X0111986
X0092301
Y0478583
X0111986
X0143394
X0163079
Y05125
X0143394
X0111986
X0092301
X0058
X0038315
Y0479083
X0058
Y0445667
X0038315
X0038315Y041225
X0058
T08
X00135Y00155
X00235
Y0038
X00135
Y00605
X00235
Y0083
X00135
X0098Y0549
X0108
T09
X0022Y01585
Y01685
Y01785
Y01885
Y01985
X0032
Y01885
Y01785
Y01685
Y01585
T10
X016996Y01385
X018
X0190039
T11
X0185Y01635
Y01835
M30
